<mxfile host="app.diagrams.net" modified="2022-01-03T18:12:10.947Z" agent="5.0 (Macintosh; Intel Mac OS X 10_15_7) AppleWebKit/605.1.15 (KHTML, like Gecko) Version/15.2 Safari/605.1.15" etag="corclH1I1FB6n8vPMQnb" version="16.0.0" type="github" pages="2">
  <diagram id="Z3TUyO1uKxr_OHT_QOy0" name="第 1 页">
    <mxGraphModel dx="1696" dy="597" grid="1" gridSize="10" guides="1" tooltips="1" connect="1" arrows="1" fold="1" page="1" pageScale="1" pageWidth="827" pageHeight="1169" background="none" math="0" shadow="0">
      <root>
        <mxCell id="0" />
        <mxCell id="1" parent="0" />
        <mxCell id="whuzJQe5Y9KvXegfson8-13" value="" style="rounded=0;whiteSpace=wrap;html=1;fontSize=16;fillColor=#f8cecc;strokeColor=#b85450;sketch=1;" parent="1" vertex="1">
          <mxGeometry x="630" y="445" width="370" height="395" as="geometry" />
        </mxCell>
        <mxCell id="whuzJQe5Y9KvXegfson8-12" value="" style="rounded=0;whiteSpace=wrap;html=1;fontSize=16;fillColor=#d5e8d4;strokeColor=#82b366;sketch=1;" parent="1" vertex="1">
          <mxGeometry x="30" y="445" width="560" height="395" as="geometry" />
        </mxCell>
        <mxCell id="PeKls6Yjagie5iTTzEYD-8" value="&lt;p class=&quot;p1&quot; style=&quot;margin: 0px; text-align: justify; text-indent: 24px; font-stretch: normal; line-height: normal; font-family: simsong; font-size: 16px;&quot;&gt;个&lt;/p&gt;&lt;p class=&quot;p1&quot; style=&quot;margin: 0px; text-align: justify; text-indent: 24px; font-stretch: normal; line-height: normal; font-family: simsong; font-size: 16px;&quot;&gt;性&lt;/p&gt;&lt;p class=&quot;p1&quot; style=&quot;margin: 0px; text-align: justify; text-indent: 24px; font-stretch: normal; line-height: normal; font-family: simsong; font-size: 16px;&quot;&gt;专&lt;/p&gt;&lt;p class=&quot;p1&quot; style=&quot;margin: 0px; text-align: justify; text-indent: 24px; font-stretch: normal; line-height: normal; font-family: simsong; font-size: 16px;&quot;&gt;业&lt;/p&gt;&lt;p class=&quot;p1&quot; style=&quot;margin: 0px; text-align: justify; text-indent: 24px; font-stretch: normal; line-height: normal; font-family: simsong; font-size: 16px;&quot;&gt;系&lt;/p&gt;&lt;p class=&quot;p1&quot; style=&quot;margin: 0px; text-align: justify; text-indent: 24px; font-stretch: normal; line-height: normal; font-family: simsong; font-size: 16px;&quot;&gt;统&lt;/p&gt;" style="text;html=1;align=center;verticalAlign=middle;resizable=0;points=[];autosize=1;strokeColor=none;fillColor=none;rounded=0;fontSize=16;sketch=1;" parent="1" vertex="1">
          <mxGeometry x="-40" y="450" width="60" height="100" as="geometry" />
        </mxCell>
        <mxCell id="PeKls6Yjagie5iTTzEYD-34" value="&lt;p class=&quot;p1&quot; style=&quot;margin: 0px ; text-align: justify ; text-indent: 24px ; font-stretch: normal ; line-height: normal ; font-family: &amp;#34;simsong&amp;#34; ; font-size: 8px&quot;&gt;集&lt;/p&gt;&lt;p class=&quot;p1&quot; style=&quot;margin: 0px ; text-align: justify ; text-indent: 24px ; font-stretch: normal ; line-height: normal ; font-family: &amp;#34;simsong&amp;#34; ; font-size: 8px&quot;&gt;成&lt;/p&gt;&lt;p class=&quot;p1&quot; style=&quot;margin: 0px ; text-align: justify ; text-indent: 24px ; font-stretch: normal ; line-height: normal ; font-family: &amp;#34;simsong&amp;#34; ; font-size: 8px&quot;&gt;内&lt;/p&gt;&lt;p class=&quot;p1&quot; style=&quot;margin: 0px ; text-align: justify ; text-indent: 24px ; font-stretch: normal ; line-height: normal ; font-family: &amp;#34;simsong&amp;#34; ; font-size: 8px&quot;&gt;部&lt;/p&gt;&lt;p class=&quot;p1&quot; style=&quot;margin: 0px ; text-align: justify ; text-indent: 24px ; font-stretch: normal ; line-height: normal ; font-family: &amp;#34;simsong&amp;#34; ; font-size: 8px&quot;&gt;办&lt;/p&gt;&lt;p class=&quot;p1&quot; style=&quot;margin: 0px ; text-align: justify ; text-indent: 24px ; font-stretch: normal ; line-height: normal ; font-family: &amp;#34;simsong&amp;#34; ; font-size: 8px&quot;&gt;公&lt;/p&gt;&lt;p class=&quot;p1&quot; style=&quot;margin: 0px ; text-align: justify ; text-indent: 24px ; font-stretch: normal ; line-height: normal ; font-family: &amp;#34;simsong&amp;#34; ; font-size: 8px&quot;&gt;系&lt;/p&gt;&lt;p class=&quot;p1&quot; style=&quot;margin: 0px ; text-align: justify ; text-indent: 24px ; font-stretch: normal ; line-height: normal ; font-family: &amp;#34;simsong&amp;#34; ; font-size: 8px&quot;&gt;统&lt;/p&gt;&lt;p class=&quot;p1&quot; style=&quot;margin: 0px ; text-align: justify ; text-indent: 24px ; font-stretch: normal ; line-height: normal ; font-family: &amp;#34;simsong&amp;#34; ; font-size: 8px&quot;&gt;，&lt;/p&gt;&lt;p class=&quot;p1&quot; style=&quot;margin: 0px ; text-align: justify ; text-indent: 24px ; font-stretch: normal ; line-height: normal ; font-family: &amp;#34;simsong&amp;#34; ; font-size: 8px&quot;&gt;保&lt;/p&gt;&lt;p class=&quot;p1&quot; style=&quot;margin: 0px ; text-align: justify ; text-indent: 24px ; font-stretch: normal ; line-height: normal ; font-family: &amp;#34;simsong&amp;#34; ; font-size: 8px&quot;&gt;留&lt;/p&gt;&lt;p class=&quot;p1&quot; style=&quot;margin: 0px ; text-align: justify ; text-indent: 24px ; font-stretch: normal ; line-height: normal ; font-family: &amp;#34;simsong&amp;#34; ; font-size: 8px&quot;&gt;内&lt;/p&gt;&lt;p class=&quot;p1&quot; style=&quot;margin: 0px ; text-align: justify ; text-indent: 24px ; font-stretch: normal ; line-height: normal ; font-family: &amp;#34;simsong&amp;#34; ; font-size: 8px&quot;&gt;部&lt;/p&gt;&lt;p class=&quot;p1&quot; style=&quot;margin: 0px ; text-align: justify ; text-indent: 24px ; font-stretch: normal ; line-height: normal ; font-family: &amp;#34;simsong&amp;#34; ; font-size: 8px&quot;&gt;流&lt;/p&gt;&lt;p class=&quot;p1&quot; style=&quot;margin: 0px ; text-align: justify ; text-indent: 24px ; font-stretch: normal ; line-height: normal ; font-family: &amp;#34;simsong&amp;#34; ; font-size: 8px&quot;&gt;转&lt;/p&gt;&lt;p class=&quot;p1&quot; style=&quot;margin: 0px ; text-align: justify ; text-indent: 24px ; font-stretch: normal ; line-height: normal ; font-family: &amp;#34;simsong&amp;#34; ; font-size: 8px&quot;&gt;个&lt;/p&gt;&lt;p class=&quot;p1&quot; style=&quot;margin: 0px ; text-align: justify ; text-indent: 24px ; font-stretch: normal ; line-height: normal ; font-family: &amp;#34;simsong&amp;#34; ; font-size: 8px&quot;&gt;性&lt;/p&gt;&lt;p class=&quot;p1&quot; style=&quot;margin: 0px ; text-align: justify ; text-indent: 24px ; font-stretch: normal ; line-height: normal ; font-family: &amp;#34;simsong&amp;#34; ; font-size: 8px&quot;&gt;化&lt;/p&gt;&lt;p class=&quot;p1&quot; style=&quot;margin: 0px ; text-align: justify ; text-indent: 24px ; font-stretch: normal ; line-height: normal ; font-family: &amp;#34;simsong&amp;#34; ; font-size: 8px&quot;&gt;内&lt;/p&gt;&lt;p class=&quot;p1&quot; style=&quot;margin: 0px ; text-align: justify ; text-indent: 24px ; font-stretch: normal ; line-height: normal ; font-family: &amp;#34;simsong&amp;#34; ; font-size: 8px&quot;&gt;容&lt;/p&gt;&lt;p class=&quot;p1&quot; style=&quot;margin: 0px ; text-align: justify ; text-indent: 24px ; font-stretch: normal ; line-height: normal ; font-family: &amp;#34;simsong&amp;#34; ; font-size: 8px&quot;&gt;，&lt;/p&gt;&lt;p class=&quot;p1&quot; style=&quot;margin: 0px ; text-align: justify ; text-indent: 24px ; font-stretch: normal ; line-height: normal ; font-family: &amp;#34;simsong&amp;#34; ; font-size: 8px&quot;&gt;其&lt;/p&gt;&lt;p class=&quot;p1&quot; style=&quot;margin: 0px ; text-align: justify ; text-indent: 24px ; font-stretch: normal ; line-height: normal ; font-family: &amp;#34;simsong&amp;#34; ; font-size: 8px&quot;&gt;他&lt;/p&gt;&lt;p class=&quot;p1&quot; style=&quot;margin: 0px ; text-align: justify ; text-indent: 24px ; font-stretch: normal ; line-height: normal ; font-family: &amp;#34;simsong&amp;#34; ; font-size: 8px&quot;&gt;均&lt;/p&gt;&lt;p class=&quot;p1&quot; style=&quot;margin: 0px ; text-align: justify ; text-indent: 24px ; font-stretch: normal ; line-height: normal ; font-family: &amp;#34;simsong&amp;#34; ; font-size: 8px&quot;&gt;统&lt;/p&gt;&lt;p class=&quot;p1&quot; style=&quot;margin: 0px ; text-align: justify ; text-indent: 24px ; font-stretch: normal ; line-height: normal ; font-family: &amp;#34;simsong&amp;#34; ; font-size: 8px&quot;&gt;&lt;span&gt;一&lt;/span&gt;&lt;br&gt;&lt;/p&gt;&lt;p class=&quot;p1&quot; style=&quot;margin: 0px ; text-align: justify ; text-indent: 24px ; font-stretch: normal ; line-height: normal ; font-family: &amp;#34;simsong&amp;#34; ; font-size: 8px&quot;&gt;&lt;span&gt;至&lt;/span&gt;&lt;/p&gt;&lt;p class=&quot;p1&quot; style=&quot;margin: 0px ; text-align: justify ; text-indent: 24px ; font-stretch: normal ; line-height: normal ; font-family: &amp;#34;simsong&amp;#34; ; font-size: 8px&quot;&gt;&lt;span&gt;集&lt;/span&gt;&lt;/p&gt;&lt;p class=&quot;p1&quot; style=&quot;margin: 0px ; text-align: justify ; text-indent: 24px ; font-stretch: normal ; line-height: normal ; font-family: &amp;#34;simsong&amp;#34; ; font-size: 8px&quot;&gt;&lt;span&gt;团&lt;/span&gt;&lt;/p&gt;&lt;p class=&quot;p1&quot; style=&quot;margin: 0px ; text-align: justify ; text-indent: 24px ; font-stretch: normal ; line-height: normal ; font-family: &amp;#34;simsong&amp;#34; ; font-size: 8px&quot;&gt;&lt;span&gt;一&lt;/span&gt;&lt;/p&gt;&lt;p class=&quot;p1&quot; style=&quot;margin: 0px ; text-align: justify ; text-indent: 24px ; font-stretch: normal ; line-height: normal ; font-family: &amp;#34;simsong&amp;#34; ; font-size: 8px&quot;&gt;&lt;span&gt;体&lt;/span&gt;&lt;/p&gt;&lt;p class=&quot;p1&quot; style=&quot;margin: 0px ; text-align: justify ; text-indent: 24px ; font-stretch: normal ; line-height: normal ; font-family: &amp;#34;simsong&amp;#34; ; font-size: 8px&quot;&gt;&lt;span&gt;化&lt;/span&gt;&lt;/p&gt;&lt;p class=&quot;p1&quot; style=&quot;margin: 0px ; text-align: justify ; text-indent: 24px ; font-stretch: normal ; line-height: normal ; font-family: &amp;#34;simsong&amp;#34; ; font-size: 8px&quot;&gt;&lt;span&gt;平&lt;/span&gt;&lt;/p&gt;&lt;p class=&quot;p1&quot; style=&quot;margin: 0px ; text-align: justify ; text-indent: 24px ; font-stretch: normal ; line-height: normal ; font-family: &amp;#34;simsong&amp;#34; ; font-size: 8px&quot;&gt;&lt;span&gt;台&lt;/span&gt;&lt;/p&gt;&lt;p class=&quot;p1&quot; style=&quot;margin: 0px ; text-align: justify ; text-indent: 24px ; font-stretch: normal ; line-height: normal ; font-family: &amp;#34;simsong&amp;#34; ; font-size: 8px&quot;&gt;&lt;span&gt;，&lt;/span&gt;&lt;/p&gt;&lt;p class=&quot;p1&quot; style=&quot;margin: 0px ; text-align: justify ; text-indent: 24px ; font-stretch: normal ; line-height: normal ; font-family: &amp;#34;simsong&amp;#34; ; font-size: 8px&quot;&gt;&lt;span&gt;并&lt;/span&gt;&lt;/p&gt;&lt;p class=&quot;p1&quot; style=&quot;margin: 0px ; text-align: justify ; text-indent: 24px ; font-stretch: normal ; line-height: normal ; font-family: &amp;#34;simsong&amp;#34; ; font-size: 8px&quot;&gt;&lt;span&gt;集&lt;/span&gt;&lt;/p&gt;&lt;p class=&quot;p1&quot; style=&quot;margin: 0px ; text-align: justify ; text-indent: 24px ; font-stretch: normal ; line-height: normal ; font-family: &amp;#34;simsong&amp;#34; ; font-size: 8px&quot;&gt;&lt;span&gt;成&lt;/span&gt;&lt;/p&gt;&lt;p class=&quot;p1&quot; style=&quot;margin: 0px ; text-align: justify ; text-indent: 24px ; font-stretch: normal ; line-height: normal ; font-family: &amp;#34;simsong&amp;#34; ; font-size: 8px&quot;&gt;&lt;span&gt;至&lt;/span&gt;&lt;/p&gt;&lt;p class=&quot;p1&quot; style=&quot;margin: 0px ; text-align: justify ; text-indent: 24px ; font-stretch: normal ; line-height: normal ; font-family: &amp;#34;simsong&amp;#34; ; font-size: 8px&quot;&gt;&lt;span&gt;统&lt;/span&gt;&lt;/p&gt;&lt;p class=&quot;p1&quot; style=&quot;margin: 0px ; text-align: justify ; text-indent: 24px ; font-stretch: normal ; line-height: normal ; font-family: &amp;#34;simsong&amp;#34; ; font-size: 8px&quot;&gt;&lt;span&gt;一&lt;/span&gt;&lt;/p&gt;&lt;p class=&quot;p1&quot; style=&quot;margin: 0px ; text-align: justify ; text-indent: 24px ; font-stretch: normal ; line-height: normal ; font-family: &amp;#34;simsong&amp;#34; ; font-size: 8px&quot;&gt;&lt;span&gt;门&lt;/span&gt;&lt;/p&gt;&lt;p class=&quot;p1&quot; style=&quot;margin: 0px ; text-align: justify ; text-indent: 24px ; font-stretch: normal ; line-height: normal ; font-family: &amp;#34;simsong&amp;#34; ; font-size: 8px&quot;&gt;&lt;span&gt;户&lt;/span&gt;&lt;br&gt;&lt;/p&gt;&lt;p class=&quot;p1&quot; style=&quot;margin: 0px ; text-align: justify ; text-indent: 24px ; font-stretch: normal ; line-height: normal ; font-family: &amp;#34;simsong&amp;#34; ; font-size: 8px&quot;&gt;登&lt;/p&gt;&lt;p class=&quot;p1&quot; style=&quot;margin: 0px ; text-align: justify ; text-indent: 24px ; font-stretch: normal ; line-height: normal ; font-family: &amp;#34;simsong&amp;#34; ; font-size: 8px&quot;&gt;陆&lt;/p&gt;" style="text;html=1;align=center;verticalAlign=middle;resizable=0;points=[];autosize=1;strokeColor=none;fillColor=none;rounded=0;fontSize=8;rotation=0;sketch=1;" parent="1" vertex="1">
          <mxGeometry x="-20" y="500" width="50" height="370" as="geometry" />
        </mxCell>
        <mxCell id="PeKls6Yjagie5iTTzEYD-49" value="&lt;p class=&quot;p1&quot; style=&quot;margin: 0px ; text-align: justify ; text-indent: 24px ; font-stretch: normal ; line-height: normal ; font-family: &amp;#34;simsong&amp;#34; ; font-size: 8px&quot;&gt;统&lt;/p&gt;&lt;p class=&quot;p1&quot; style=&quot;margin: 0px ; text-align: justify ; text-indent: 24px ; font-stretch: normal ; line-height: normal ; font-family: &amp;#34;simsong&amp;#34; ; font-size: 8px&quot;&gt;一&lt;/p&gt;&lt;p class=&quot;p1&quot; style=&quot;margin: 0px ; text-align: justify ; text-indent: 24px ; font-stretch: normal ; line-height: normal ; font-family: &amp;#34;simsong&amp;#34; ; font-size: 8px&quot;&gt;门&lt;/p&gt;&lt;p class=&quot;p1&quot; style=&quot;margin: 0px ; text-align: justify ; text-indent: 24px ; font-stretch: normal ; line-height: normal ; font-family: &amp;#34;simsong&amp;#34; ; font-size: 8px&quot;&gt;户&lt;/p&gt;&lt;p class=&quot;p1&quot; style=&quot;margin: 0px ; text-align: justify ; text-indent: 24px ; font-stretch: normal ; line-height: normal ; font-family: &amp;#34;simsong&amp;#34; ; font-size: 8px&quot;&gt;、&lt;/p&gt;&lt;p class=&quot;p1&quot; style=&quot;margin: 0px ; text-align: justify ; text-indent: 24px ; font-stretch: normal ; line-height: normal ; font-family: &amp;#34;simsong&amp;#34; ; font-size: 8px&quot;&gt;办&lt;/p&gt;&lt;p class=&quot;p1&quot; style=&quot;margin: 0px ; text-align: justify ; text-indent: 24px ; font-stretch: normal ; line-height: normal ; font-family: &amp;#34;simsong&amp;#34; ; font-size: 8px&quot;&gt;公&lt;/p&gt;&lt;p class=&quot;p1&quot; style=&quot;margin: 0px ; text-align: justify ; text-indent: 24px ; font-stretch: normal ; line-height: normal ; font-family: &amp;#34;simsong&amp;#34; ; font-size: 8px&quot;&gt;、&lt;/p&gt;&lt;p class=&quot;p1&quot; style=&quot;margin: 0px ; text-align: justify ; text-indent: 24px ; font-stretch: normal ; line-height: normal ; font-family: &amp;#34;simsong&amp;#34; ; font-size: 8px&quot;&gt;财&lt;/p&gt;&lt;p class=&quot;p1&quot; style=&quot;margin: 0px ; text-align: justify ; text-indent: 24px ; font-stretch: normal ; line-height: normal ; font-family: &amp;#34;simsong&amp;#34; ; font-size: 8px&quot;&gt;务&lt;/p&gt;&lt;p class=&quot;p1&quot; style=&quot;margin: 0px ; text-align: justify ; text-indent: 24px ; font-stretch: normal ; line-height: normal ; font-family: &amp;#34;simsong&amp;#34; ; font-size: 8px&quot;&gt;、&lt;/p&gt;&lt;p class=&quot;p1&quot; style=&quot;margin: 0px ; text-align: justify ; text-indent: 24px ; font-stretch: normal ; line-height: normal ; font-family: &amp;#34;simsong&amp;#34; ; font-size: 8px&quot;&gt;人&lt;/p&gt;&lt;p class=&quot;p1&quot; style=&quot;margin: 0px ; text-align: justify ; text-indent: 24px ; font-stretch: normal ; line-height: normal ; font-family: &amp;#34;simsong&amp;#34; ; font-size: 8px&quot;&gt;事&lt;/p&gt;&lt;p class=&quot;p1&quot; style=&quot;margin: 0px ; text-align: justify ; text-indent: 24px ; font-stretch: normal ; line-height: normal ; font-family: &amp;#34;simsong&amp;#34; ; font-size: 8px&quot;&gt;、&lt;/p&gt;&lt;p class=&quot;p1&quot; style=&quot;margin: 0px ; text-align: justify ; text-indent: 24px ; font-stretch: normal ; line-height: normal ; font-family: &amp;#34;simsong&amp;#34; ; font-size: 8px&quot;&gt;资&lt;/p&gt;&lt;p class=&quot;p1&quot; style=&quot;margin: 0px ; text-align: justify ; text-indent: 24px ; font-stretch: normal ; line-height: normal ; font-family: &amp;#34;simsong&amp;#34; ; font-size: 8px&quot;&gt;源&lt;/p&gt;&lt;p class=&quot;p1&quot; style=&quot;margin: 0px ; text-align: justify ; text-indent: 24px ; font-stretch: normal ; line-height: normal ; font-family: &amp;#34;simsong&amp;#34; ; font-size: 8px&quot;&gt;&lt;br&gt;&lt;/p&gt;" style="text;html=1;align=center;verticalAlign=middle;resizable=0;points=[];autosize=1;strokeColor=none;fillColor=none;rounded=0;fontSize=8;rotation=0;sketch=1;" parent="1" vertex="1">
          <mxGeometry x="229.50185185185182" y="273" width="50" height="140" as="geometry" />
        </mxCell>
        <mxCell id="PeKls6Yjagie5iTTzEYD-51" value="" style="rounded=1;whiteSpace=wrap;html=1;fontSize=8;fillColor=#dae8fc;strokeColor=#6c8ebf;sketch=1;" parent="1" vertex="1">
          <mxGeometry x="279.5" y="260" width="520.5" height="110" as="geometry" />
        </mxCell>
        <mxCell id="PeKls6Yjagie5iTTzEYD-50" value="&lt;p class=&quot;p1&quot; style=&quot;margin: 0px; text-align: justify; text-indent: 24px; font-stretch: normal; line-height: normal; font-family: simsong; font-size: 16px;&quot;&gt;统&lt;/p&gt;&lt;p class=&quot;p1&quot; style=&quot;margin: 0px; text-align: justify; text-indent: 24px; font-stretch: normal; line-height: normal; font-family: simsong; font-size: 16px;&quot;&gt;建&lt;/p&gt;&lt;p class=&quot;p1&quot; style=&quot;margin: 0px; text-align: justify; text-indent: 24px; font-stretch: normal; line-height: normal; font-family: simsong; font-size: 16px;&quot;&gt;系&lt;/p&gt;&lt;p class=&quot;p1&quot; style=&quot;margin: 0px; text-align: justify; text-indent: 24px; font-stretch: normal; line-height: normal; font-family: simsong; font-size: 16px;&quot;&gt;统&lt;/p&gt;" style="text;html=1;align=center;verticalAlign=middle;resizable=0;points=[];autosize=1;strokeColor=none;fillColor=none;rounded=0;fontSize=16;sketch=1;" parent="1" vertex="1">
          <mxGeometry x="185.00481481481484" y="260" width="60" height="70" as="geometry" />
        </mxCell>
        <mxCell id="PeKls6Yjagie5iTTzEYD-54" value="&lt;span style=&quot;color: rgb(0 , 0 , 0) ; font-size: 12px ; font-style: normal ; font-weight: normal ; letter-spacing: normal ; text-align: justify ; text-indent: 24px ; text-transform: none ; word-spacing: 0px ; text-decoration: none ; display: inline ; float: none&quot;&gt;一体化管控平台&lt;/span&gt;" style="rounded=0;whiteSpace=wrap;html=1;fillColor=#dae8fc;strokeColor=#6c8ebf;sketch=1;" parent="1" vertex="1">
          <mxGeometry x="495.30703703703705" y="300" width="88.88888888888889" height="40" as="geometry" />
        </mxCell>
        <mxCell id="PeKls6Yjagie5iTTzEYD-55" value="&lt;p class=&quot;p1&quot; style=&quot;margin: 0px ; text-indent: 24px ; font-stretch: normal ; line-height: normal ; font-family: &amp;#34;simsong&amp;#34; ; font-size: 10px&quot;&gt;成都设计咨询集团&lt;/p&gt;" style="text;html=1;align=left;verticalAlign=middle;resizable=0;points=[];autosize=1;rounded=0;fontSize=10;sketch=1;" parent="1" vertex="1">
          <mxGeometry x="288.5" y="260" width="120" height="20" as="geometry" />
        </mxCell>
        <mxCell id="PeKls6Yjagie5iTTzEYD-56" value="&lt;p class=&quot;p1&quot; style=&quot;margin: 0px ; text-align: justify ; text-indent: 24px ; font-stretch: normal ; line-height: normal ; font-family: &amp;#34;simsong&amp;#34; ; font-size: 8px&quot;&gt;统&lt;/p&gt;&lt;p class=&quot;p1&quot; style=&quot;margin: 0px ; text-align: justify ; text-indent: 24px ; font-stretch: normal ; line-height: normal ; font-family: &amp;#34;simsong&amp;#34; ; font-size: 8px&quot;&gt;一&lt;/p&gt;&lt;p class=&quot;p1&quot; style=&quot;margin: 0px ; text-align: justify ; text-indent: 24px ; font-stretch: normal ; line-height: normal ; font-family: &amp;#34;simsong&amp;#34; ; font-size: 8px&quot;&gt;集&lt;/p&gt;&lt;p class=&quot;p1&quot; style=&quot;margin: 0px ; text-align: justify ; text-indent: 24px ; font-stretch: normal ; line-height: normal ; font-family: &amp;#34;simsong&amp;#34; ; font-size: 8px&quot;&gt;团&lt;/p&gt;&lt;p class=&quot;p1&quot; style=&quot;margin: 0px ; text-align: justify ; text-indent: 24px ; font-stretch: normal ; line-height: normal ; font-family: &amp;#34;simsong&amp;#34; ; font-size: 8px&quot;&gt;职&lt;/p&gt;&lt;p class=&quot;p1&quot; style=&quot;margin: 0px ; text-align: justify ; text-indent: 24px ; font-stretch: normal ; line-height: normal ; font-family: &amp;#34;simsong&amp;#34; ; font-size: 8px&quot;&gt;能&lt;/p&gt;&lt;p class=&quot;p1&quot; style=&quot;margin: 0px ; text-align: justify ; text-indent: 24px ; font-stretch: normal ; line-height: normal ; font-family: &amp;#34;simsong&amp;#34; ; font-size: 8px&quot;&gt;管&lt;/p&gt;&lt;p class=&quot;p1&quot; style=&quot;margin: 0px ; text-align: justify ; text-indent: 24px ; font-stretch: normal ; line-height: normal ; font-family: &amp;#34;simsong&amp;#34; ; font-size: 8px&quot;&gt;控&lt;/p&gt;" style="text;html=1;align=center;verticalAlign=middle;resizable=0;points=[];autosize=1;strokeColor=none;fillColor=none;rounded=0;fontSize=8;rotation=0;sketch=1;" parent="1" vertex="1">
          <mxGeometry x="208.50407407407408" y="260" width="50" height="70" as="geometry" />
        </mxCell>
        <mxCell id="PeKls6Yjagie5iTTzEYD-57" value="&lt;p class=&quot;p1&quot; style=&quot;margin: 0px ; text-align: justify ; text-indent: 24px ; font-stretch: normal ; line-height: normal ; font-family: &amp;#34;simsong&amp;#34; ; font-size: 8px&quot;&gt;统&lt;/p&gt;&lt;p class=&quot;p1&quot; style=&quot;margin: 0px ; text-align: justify ; text-indent: 24px ; font-stretch: normal ; line-height: normal ; font-family: &amp;#34;simsong&amp;#34; ; font-size: 8px&quot;&gt;一&lt;/p&gt;&lt;p class=&quot;p1&quot; style=&quot;margin: 0px ; text-align: justify ; text-indent: 24px ; font-stretch: normal ; line-height: normal ; font-family: &amp;#34;simsong&amp;#34; ; font-size: 8px&quot;&gt;集&lt;/p&gt;&lt;p class=&quot;p1&quot; style=&quot;margin: 0px ; text-align: justify ; text-indent: 24px ; font-stretch: normal ; line-height: normal ; font-family: &amp;#34;simsong&amp;#34; ; font-size: 8px&quot;&gt;团&lt;/p&gt;&lt;p class=&quot;p1&quot; style=&quot;margin: 0px ; text-align: justify ; text-indent: 24px ; font-stretch: normal ; line-height: normal ; font-family: &amp;#34;simsong&amp;#34; ; font-size: 8px&quot;&gt;数&lt;/p&gt;&lt;p class=&quot;p1&quot; style=&quot;margin: 0px ; text-align: justify ; text-indent: 24px ; font-stretch: normal ; line-height: normal ; font-family: &amp;#34;simsong&amp;#34; ; font-size: 8px&quot;&gt;据&lt;/p&gt;&lt;p class=&quot;p1&quot; style=&quot;margin: 0px ; text-align: justify ; text-indent: 24px ; font-stretch: normal ; line-height: normal ; font-family: &amp;#34;simsong&amp;#34; ; font-size: 8px&quot;&gt;决&lt;/p&gt;&lt;p class=&quot;p1&quot; style=&quot;margin: 0px ; text-align: justify ; text-indent: 24px ; font-stretch: normal ; line-height: normal ; font-family: &amp;#34;simsong&amp;#34; ; font-size: 8px&quot;&gt;策&lt;/p&gt;" style="text;html=1;align=center;verticalAlign=middle;resizable=0;points=[];autosize=1;strokeColor=none;fillColor=none;rounded=0;fontSize=8;rotation=0;sketch=1;" parent="1" vertex="1">
          <mxGeometry x="220.00407407407408" y="260" width="50" height="70" as="geometry" />
        </mxCell>
        <mxCell id="EIvod3ehS7jd2LmZPodY-13" value="" style="group;sketch=1;" parent="1" vertex="1" connectable="0">
          <mxGeometry x="647" y="480" width="163" height="351.87" as="geometry" />
        </mxCell>
        <mxCell id="PeKls6Yjagie5iTTzEYD-41" value="" style="rounded=1;whiteSpace=wrap;html=1;fontSize=8;fillColor=#f5f5f5;strokeColor=#666666;fontColor=#333333;sketch=1;" parent="EIvod3ehS7jd2LmZPodY-13" vertex="1">
          <mxGeometry width="163" height="351.86999999999995" as="geometry" />
        </mxCell>
        <mxCell id="PeKls6Yjagie5iTTzEYD-43" value="&lt;span style=&quot;color: rgb(0 , 0 , 0) ; font-size: 12px ; font-style: normal ; font-weight: normal ; letter-spacing: normal ; text-align: justify ; text-indent: 24px ; text-transform: none ; word-spacing: 0px ; text-decoration: none ; display: inline ; float: none&quot;&gt;档案管理系统&lt;/span&gt;" style="rounded=0;whiteSpace=wrap;html=1;fillColor=#dae8fc;strokeColor=#6c8ebf;sketch=1;" parent="EIvod3ehS7jd2LmZPodY-13" vertex="1">
          <mxGeometry x="27.166666666666668" y="43.11999999999999" width="90.55555555555556" height="47.49999999999999" as="geometry" />
        </mxCell>
        <mxCell id="PeKls6Yjagie5iTTzEYD-44" value="&lt;span style=&quot;color: rgb(0 , 0 , 0) ; font-size: 12px ; font-style: normal ; font-weight: normal ; letter-spacing: normal ; text-align: justify ; text-indent: 24px ; text-transform: none ; word-spacing: 0px ; text-decoration: none ; display: inline ; float: none&quot;&gt;设计成果归档系统&lt;/span&gt;" style="rounded=0;whiteSpace=wrap;html=1;fillColor=#dae8fc;strokeColor=#6c8ebf;sketch=1;" parent="EIvod3ehS7jd2LmZPodY-13" vertex="1">
          <mxGeometry x="27.166666666666668" y="106.86999999999999" width="90.55555555555556" height="47.49999999999999" as="geometry" />
        </mxCell>
        <mxCell id="PeKls6Yjagie5iTTzEYD-45" value="&lt;span style=&quot;color: rgb(0 , 0 , 0) ; font-size: 12px ; font-style: normal ; font-weight: normal ; letter-spacing: normal ; text-align: justify ; text-indent: 24px ; text-transform: none ; word-spacing: 0px ; text-decoration: none ; display: inline ; float: none&quot;&gt;生产流程管理系统&lt;/span&gt;" style="rounded=0;whiteSpace=wrap;html=1;fillColor=#dae8fc;strokeColor=#6c8ebf;sketch=1;" parent="EIvod3ehS7jd2LmZPodY-13" vertex="1">
          <mxGeometry x="27.166666666666668" y="173.11999999999998" width="90.55555555555556" height="47.49999999999999" as="geometry" />
        </mxCell>
        <mxCell id="PeKls6Yjagie5iTTzEYD-46" value="&lt;span style=&quot;color: rgb(0 , 0 , 0) ; font-size: 12px ; font-style: normal ; font-weight: normal ; letter-spacing: normal ; text-align: justify ; text-indent: 24px ; text-transform: none ; word-spacing: 0px ; text-decoration: none ; display: inline ; float: none&quot;&gt;主机审计系统&lt;/span&gt;" style="rounded=0;whiteSpace=wrap;html=1;fillColor=#dae8fc;strokeColor=#6c8ebf;sketch=1;" parent="EIvod3ehS7jd2LmZPodY-13" vertex="1">
          <mxGeometry x="27.166666666666668" y="243.11999999999998" width="90.55555555555556" height="47.49999999999999" as="geometry" />
        </mxCell>
        <mxCell id="PeKls6Yjagie5iTTzEYD-42" value="&lt;p class=&quot;p1&quot; style=&quot;margin: 0px ; text-indent: 24px ; font-stretch: normal ; line-height: normal ; font-family: &amp;#34;simsong&amp;#34; ; font-size: 10px&quot;&gt;成都市政工程设计研究院&lt;/p&gt;" style="text;html=1;align=left;verticalAlign=middle;resizable=0;points=[];autosize=1;rounded=0;fontSize=10;sketch=1;" parent="EIvod3ehS7jd2LmZPodY-13" vertex="1">
          <mxGeometry x="-9.055555555555555" width="150" height="20" as="geometry" />
        </mxCell>
        <mxCell id="PeKls6Yjagie5iTTzEYD-35" value="" style="rounded=1;whiteSpace=wrap;html=1;fontSize=8;fillColor=#f5f5f5;strokeColor=#666666;fontColor=#333333;sketch=1;" parent="1" vertex="1">
          <mxGeometry x="830" y="480" width="160" height="50" as="geometry" />
        </mxCell>
        <mxCell id="PeKls6Yjagie5iTTzEYD-36" value="&lt;p class=&quot;p1&quot; style=&quot;margin: 0px ; text-indent: 24px ; font-stretch: normal ; line-height: normal ; font-family: &amp;#34;simsong&amp;#34; ; font-size: 10px&quot;&gt;成都市水利电力勘测设计院&lt;/p&gt;" style="text;html=1;align=left;verticalAlign=middle;resizable=0;points=[];autosize=1;rounded=0;fontSize=10;sketch=1;" parent="1" vertex="1">
          <mxGeometry x="820" y="480" width="160" height="20" as="geometry" />
        </mxCell>
        <mxCell id="PeKls6Yjagie5iTTzEYD-37" value="" style="rounded=1;whiteSpace=wrap;html=1;fontSize=8;fillColor=#f5f5f5;strokeColor=#666666;fontColor=#333333;sketch=1;" parent="1" vertex="1">
          <mxGeometry x="830" y="550" width="160" height="50" as="geometry" />
        </mxCell>
        <mxCell id="PeKls6Yjagie5iTTzEYD-38" value="&lt;p class=&quot;p1&quot; style=&quot;margin: 0px ; text-indent: 24px ; font-stretch: normal ; line-height: normal ; font-family: &amp;#34;simsong&amp;#34; ; font-size: 10px&quot;&gt;成都市交通发展研究院&lt;/p&gt;" style="text;html=1;align=left;verticalAlign=middle;resizable=0;points=[];autosize=1;rounded=0;fontSize=10;sketch=1;" parent="1" vertex="1">
          <mxGeometry x="820" y="550" width="140" height="20" as="geometry" />
        </mxCell>
        <mxCell id="PeKls6Yjagie5iTTzEYD-39" value="" style="rounded=1;whiteSpace=wrap;html=1;fontSize=8;fillColor=#f5f5f5;strokeColor=#666666;fontColor=#333333;sketch=1;" parent="1" vertex="1">
          <mxGeometry x="830" y="620" width="160" height="210" as="geometry" />
        </mxCell>
        <mxCell id="PeKls6Yjagie5iTTzEYD-40" value="&lt;p class=&quot;p1&quot; style=&quot;margin: 0px ; text-indent: 24px ; font-stretch: normal ; line-height: normal ; font-family: &amp;#34;simsong&amp;#34; ; font-size: 10px&quot;&gt;成都市建工科学研究设计院&lt;/p&gt;" style="text;html=1;align=left;verticalAlign=middle;resizable=0;points=[];autosize=1;rounded=0;fontSize=10;sketch=1;" parent="1" vertex="1">
          <mxGeometry x="820" y="620" width="160" height="20" as="geometry" />
        </mxCell>
        <mxCell id="PeKls6Yjagie5iTTzEYD-47" value="&lt;span style=&quot;color: rgb(0 , 0 , 0) ; font-size: 12px ; font-style: normal ; font-weight: normal ; letter-spacing: normal ; text-align: justify ; text-indent: 24px ; text-transform: none ; word-spacing: 0px ; text-decoration: none ; display: inline ; float: none&quot;&gt;维度E通建设工程质量综合业务信息管理系统&lt;/span&gt;" style="rounded=0;whiteSpace=wrap;html=1;fillColor=#dae8fc;strokeColor=#6c8ebf;sketch=1;" parent="1" vertex="1">
          <mxGeometry x="860" y="651.25" width="100" height="47.5" as="geometry" />
        </mxCell>
        <mxCell id="PeKls6Yjagie5iTTzEYD-48" value="&lt;span style=&quot;color: rgb(0 , 0 , 0) ; font-size: 12px ; font-style: normal ; font-weight: normal ; letter-spacing: normal ; text-align: justify ; text-indent: 24px ; text-transform: none ; word-spacing: 0px ; text-decoration: none ; display: inline ; float: none&quot;&gt;PKPM2010新规范软件&lt;/span&gt;" style="rounded=0;whiteSpace=wrap;html=1;fillColor=#dae8fc;strokeColor=#6c8ebf;sketch=1;" parent="1" vertex="1">
          <mxGeometry x="860" y="721.25" width="100" height="47.5" as="geometry" />
        </mxCell>
        <mxCell id="PeKls6Yjagie5iTTzEYD-4" value="&lt;p class=&quot;p1&quot; style=&quot;margin: 0px ; text-align: justify ; text-indent: 24px ; font-stretch: normal ; line-height: normal ; font-family: &amp;#34;simsong&amp;#34; ; font-size: 8px&quot;&gt;独&lt;/p&gt;&lt;p class=&quot;p1&quot; style=&quot;margin: 0px ; text-align: justify ; text-indent: 24px ; font-stretch: normal ; line-height: normal ; font-family: &amp;#34;simsong&amp;#34; ; font-size: 8px&quot;&gt;立&lt;/p&gt;&lt;p class=&quot;p1&quot; style=&quot;margin: 0px ; text-align: justify ; text-indent: 24px ; font-stretch: normal ; line-height: normal ; font-family: &amp;#34;simsong&amp;#34; ; font-size: 8px&quot;&gt;使&lt;/p&gt;&lt;p class=&quot;p1&quot; style=&quot;margin: 0px ; text-align: justify ; text-indent: 24px ; font-stretch: normal ; line-height: normal ; font-family: &amp;#34;simsong&amp;#34; ; font-size: 8px&quot;&gt;用&lt;/p&gt;&lt;p class=&quot;p1&quot; style=&quot;margin: 0px ; text-align: justify ; text-indent: 24px ; font-stretch: normal ; line-height: normal ; font-family: &amp;#34;simsong&amp;#34; ; font-size: 8px&quot;&gt;权&lt;/p&gt;&lt;p class=&quot;p1&quot; style=&quot;margin: 0px ; text-align: justify ; text-indent: 24px ; font-stretch: normal ; line-height: normal ; font-family: &amp;#34;simsong&amp;#34; ; font-size: 8px&quot;&gt;限&lt;/p&gt;&lt;p class=&quot;p1&quot; style=&quot;margin: 0px ; text-align: justify ; text-indent: 24px ; font-stretch: normal ; line-height: normal ; font-family: &amp;#34;simsong&amp;#34; ; font-size: 8px&quot;&gt;、&lt;/p&gt;&lt;p class=&quot;p1&quot; style=&quot;margin: 0px ; text-align: justify ; text-indent: 24px ; font-stretch: normal ; line-height: normal ; font-family: &amp;#34;simsong&amp;#34; ; font-size: 8px&quot;&gt;具&lt;/p&gt;&lt;p class=&quot;p1&quot; style=&quot;margin: 0px ; text-align: justify ; text-indent: 24px ; font-stretch: normal ; line-height: normal ; font-family: &amp;#34;simsong&amp;#34; ; font-size: 8px&quot;&gt;备&lt;/p&gt;&lt;p class=&quot;p1&quot; style=&quot;margin: 0px ; text-align: justify ; text-indent: 24px ; font-stretch: normal ; line-height: normal ; font-family: &amp;#34;simsong&amp;#34; ; font-size: 8px&quot;&gt;共&lt;/p&gt;&lt;p class=&quot;p1&quot; style=&quot;margin: 0px ; text-align: justify ; text-indent: 24px ; font-stretch: normal ; line-height: normal ; font-family: &amp;#34;simsong&amp;#34; ; font-size: 8px&quot;&gt;性&lt;/p&gt;&lt;p class=&quot;p1&quot; style=&quot;margin: 0px ; text-align: justify ; text-indent: 24px ; font-stretch: normal ; line-height: normal ; font-family: &amp;#34;simsong&amp;#34; ; font-size: 8px&quot;&gt;使&lt;/p&gt;&lt;p class=&quot;p1&quot; style=&quot;margin: 0px ; text-align: justify ; text-indent: 24px ; font-stretch: normal ; line-height: normal ; font-family: &amp;#34;simsong&amp;#34; ; font-size: 8px&quot;&gt;用&lt;/p&gt;&lt;p class=&quot;p1&quot; style=&quot;margin: 0px ; text-align: justify ; text-indent: 24px ; font-stretch: normal ; line-height: normal ; font-family: &amp;#34;simsong&amp;#34; ; font-size: 8px&quot;&gt;价&lt;/p&gt;&lt;p class=&quot;p1&quot; style=&quot;margin: 0px ; text-align: justify ; text-indent: 24px ; font-stretch: normal ; line-height: normal ; font-family: &amp;#34;simsong&amp;#34; ; font-size: 8px&quot;&gt;值&lt;/p&gt;" style="text;html=1;align=center;verticalAlign=middle;resizable=0;points=[];autosize=1;strokeColor=none;fillColor=none;rounded=0;fontSize=8;rotation=0;sketch=1;" parent="1" vertex="1">
          <mxGeometry x="130" y="925" width="50" height="130" as="geometry" />
        </mxCell>
        <mxCell id="PeKls6Yjagie5iTTzEYD-15" value="&lt;p class=&quot;p1&quot; style=&quot;margin: 0px; text-align: justify; text-indent: 24px; font-stretch: normal; line-height: normal; font-family: simsong; font-size: 16px;&quot;&gt;共&lt;/p&gt;&lt;p class=&quot;p1&quot; style=&quot;margin: 0px; text-align: justify; text-indent: 24px; font-stretch: normal; line-height: normal; font-family: simsong; font-size: 16px;&quot;&gt;享&lt;/p&gt;&lt;p class=&quot;p1&quot; style=&quot;margin: 0px; text-align: justify; text-indent: 24px; font-stretch: normal; line-height: normal; font-family: simsong; font-size: 16px;&quot;&gt;专&lt;/p&gt;&lt;p class=&quot;p1&quot; style=&quot;margin: 0px; text-align: justify; text-indent: 24px; font-stretch: normal; line-height: normal; font-family: simsong; font-size: 16px;&quot;&gt;业&lt;/p&gt;&lt;p class=&quot;p1&quot; style=&quot;margin: 0px; text-align: justify; text-indent: 24px; font-stretch: normal; line-height: normal; font-family: simsong; font-size: 16px;&quot;&gt;系&lt;/p&gt;&lt;p class=&quot;p1&quot; style=&quot;margin: 0px; text-align: justify; text-indent: 24px; font-stretch: normal; line-height: normal; font-family: simsong; font-size: 16px;&quot;&gt;统&lt;/p&gt;" style="text;html=1;align=center;verticalAlign=middle;resizable=0;points=[];autosize=1;strokeColor=none;fillColor=none;rounded=0;fontSize=16;sketch=1;" parent="1" vertex="1">
          <mxGeometry x="110" y="920" width="60" height="100" as="geometry" />
        </mxCell>
        <mxCell id="whuzJQe5Y9KvXegfson8-14" value="" style="group;sketch=1;" parent="1" vertex="1" connectable="0">
          <mxGeometry x="220" y="480" width="170" height="350" as="geometry" />
        </mxCell>
        <mxCell id="PeKls6Yjagie5iTTzEYD-20" value="" style="rounded=1;whiteSpace=wrap;html=1;fontSize=8;fillColor=#f5f5f5;strokeColor=#666666;fontColor=#333333;sketch=1;" parent="whuzJQe5Y9KvXegfson8-14" vertex="1">
          <mxGeometry x="10" width="160" height="350" as="geometry" />
        </mxCell>
        <mxCell id="PeKls6Yjagie5iTTzEYD-21" value="&lt;p class=&quot;p1&quot; style=&quot;margin: 0px ; text-indent: 24px ; font-stretch: normal ; line-height: normal ; font-family: &amp;#34;simsong&amp;#34; ; font-size: 10px&quot;&gt;成都市人防建筑设计研究院&lt;/p&gt;" style="text;html=1;align=left;verticalAlign=middle;resizable=0;points=[];autosize=1;rounded=0;fontSize=10;sketch=1;" parent="whuzJQe5Y9KvXegfson8-14" vertex="1">
          <mxGeometry width="160" height="20" as="geometry" />
        </mxCell>
        <mxCell id="PeKls6Yjagie5iTTzEYD-26" value="&lt;span style=&quot;color: rgb(0 , 0 , 0) ; font-size: 12px ; font-style: normal ; font-weight: normal ; letter-spacing: normal ; text-align: justify ; text-indent: 24px ; text-transform: none ; word-spacing: 0px ; text-decoration: none ; display: inline ; float: none&quot;&gt;新版项目管理系统及协同设计平台&lt;/span&gt;" style="rounded=0;whiteSpace=wrap;html=1;fillColor=#dae8fc;strokeColor=#6c8ebf;sketch=1;" parent="whuzJQe5Y9KvXegfson8-14" vertex="1">
          <mxGeometry x="40" y="45" width="100" height="45" as="geometry" />
        </mxCell>
        <mxCell id="PeKls6Yjagie5iTTzEYD-27" value="&lt;span style=&quot;color: rgb(0 , 0 , 0) ; font-size: 12px ; font-style: normal ; font-weight: normal ; letter-spacing: normal ; text-align: justify ; text-indent: 24px ; text-transform: none ; word-spacing: 0px ; text-decoration: none ; display: inline ; float: none&quot;&gt;维衡出图及图档管理系统&lt;/span&gt;" style="rounded=0;whiteSpace=wrap;html=1;fillColor=#dae8fc;strokeColor=#6c8ebf;sketch=1;" parent="whuzJQe5Y9KvXegfson8-14" vertex="1">
          <mxGeometry x="40" y="105" width="100" height="40" as="geometry" />
        </mxCell>
        <mxCell id="PeKls6Yjagie5iTTzEYD-28" value="&lt;span style=&quot;color: rgb(0 , 0 , 0) ; font-size: 12px ; font-style: normal ; font-weight: normal ; letter-spacing: normal ; text-align: justify ; text-indent: 24px ; text-transform: none ; word-spacing: 0px ; text-decoration: none ; display: inline ; float: none&quot;&gt;亿赛通数字安全保密系统&lt;/span&gt;" style="rounded=0;whiteSpace=wrap;html=1;fillColor=#dae8fc;strokeColor=#6c8ebf;sketch=1;" parent="whuzJQe5Y9KvXegfson8-14" vertex="1">
          <mxGeometry x="40" y="160" width="100" height="40" as="geometry" />
        </mxCell>
        <mxCell id="whuzJQe5Y9KvXegfson8-15" value="" style="group;sketch=1;" parent="1" vertex="1" connectable="0">
          <mxGeometry x="400" y="480" width="170" height="350" as="geometry" />
        </mxCell>
        <mxCell id="PeKls6Yjagie5iTTzEYD-22" value="" style="rounded=1;whiteSpace=wrap;html=1;fontSize=8;fillColor=#f5f5f5;strokeColor=#666666;fontColor=#333333;sketch=1;" parent="whuzJQe5Y9KvXegfson8-15" vertex="1">
          <mxGeometry x="10" width="160" height="350" as="geometry" />
        </mxCell>
        <mxCell id="PeKls6Yjagie5iTTzEYD-23" value="&lt;p class=&quot;p1&quot; style=&quot;margin: 0px ; text-indent: 24px ; font-stretch: normal ; line-height: normal ; font-family: &amp;#34;simsong&amp;#34; ; font-size: 10px&quot;&gt;成都市建筑设计研究院&lt;/p&gt;" style="text;html=1;align=left;verticalAlign=middle;resizable=0;points=[];autosize=1;rounded=0;fontSize=10;sketch=1;" parent="whuzJQe5Y9KvXegfson8-15" vertex="1">
          <mxGeometry width="140" height="20" as="geometry" />
        </mxCell>
        <mxCell id="PeKls6Yjagie5iTTzEYD-29" value="&lt;span style=&quot;color: rgb(0 , 0 , 0) ; font-size: 12px ; font-style: normal ; font-weight: normal ; letter-spacing: normal ; text-align: justify ; text-indent: 24px ; text-transform: none ; word-spacing: 0px ; text-decoration: none ; display: inline ; float: none&quot;&gt;企业邮箱、产值分配系统&lt;/span&gt;" style="rounded=0;whiteSpace=wrap;html=1;fillColor=#dae8fc;strokeColor=#6c8ebf;sketch=1;" parent="whuzJQe5Y9KvXegfson8-15" vertex="1">
          <mxGeometry x="40" y="42.5" width="100" height="47.5" as="geometry" />
        </mxCell>
        <mxCell id="PeKls6Yjagie5iTTzEYD-30" value="&lt;div style=&quot;text-indent: 24px;&quot;&gt;&lt;span&gt;电子签章系统&lt;/span&gt;&lt;/div&gt;" style="rounded=0;whiteSpace=wrap;html=1;fillColor=#dae8fc;strokeColor=#6c8ebf;align=center;sketch=1;" parent="whuzJQe5Y9KvXegfson8-15" vertex="1">
          <mxGeometry x="40" y="105" width="100" height="42.5" as="geometry" />
        </mxCell>
        <mxCell id="PeKls6Yjagie5iTTzEYD-31" value="&lt;div style=&quot;text-indent: 24px;&quot;&gt;&lt;span&gt;图档管理系统&lt;/span&gt;&lt;/div&gt;" style="rounded=0;whiteSpace=wrap;html=1;fillColor=#dae8fc;strokeColor=#6c8ebf;align=center;sketch=1;" parent="whuzJQe5Y9KvXegfson8-15" vertex="1">
          <mxGeometry x="40" y="160" width="100" height="42.5" as="geometry" />
        </mxCell>
        <mxCell id="PeKls6Yjagie5iTTzEYD-32" value="&lt;div style=&quot;text-indent: 24px&quot;&gt;&lt;span&gt;ESB系统&lt;/span&gt;&lt;/div&gt;" style="rounded=0;whiteSpace=wrap;html=1;fillColor=#dae8fc;strokeColor=#6c8ebf;align=center;sketch=1;" parent="whuzJQe5Y9KvXegfson8-15" vertex="1">
          <mxGeometry x="40" y="220" width="100" height="42.5" as="geometry" />
        </mxCell>
        <mxCell id="PeKls6Yjagie5iTTzEYD-33" value="&lt;div style=&quot;text-indent: 24px&quot;&gt;协同设计平台&lt;/div&gt;" style="rounded=0;whiteSpace=wrap;html=1;fillColor=#dae8fc;strokeColor=#6c8ebf;align=center;sketch=1;" parent="whuzJQe5Y9KvXegfson8-15" vertex="1">
          <mxGeometry x="40" y="280" width="100" height="42.5" as="geometry" />
        </mxCell>
        <mxCell id="whuzJQe5Y9KvXegfson8-16" value="" style="group;sketch=1;" parent="1" vertex="1" connectable="0">
          <mxGeometry x="40" y="480" width="175" height="350" as="geometry" />
        </mxCell>
        <mxCell id="PeKls6Yjagie5iTTzEYD-18" value="" style="rounded=1;whiteSpace=wrap;html=1;fontSize=8;fillColor=#f5f5f5;strokeColor=#666666;fontColor=#333333;sketch=1;" parent="whuzJQe5Y9KvXegfson8-16" vertex="1">
          <mxGeometry x="15" width="160" height="350" as="geometry" />
        </mxCell>
        <mxCell id="PeKls6Yjagie5iTTzEYD-5" value="&lt;span style=&quot;color: rgb(0, 0, 0); font-size: 12px; font-style: normal; font-weight: normal; letter-spacing: normal; text-indent: 24px; text-transform: none; word-spacing: 0px; text-decoration: none; display: inline; float: none;&quot;&gt;报告编制平台&lt;/span&gt;" style="rounded=0;whiteSpace=wrap;html=1;fillColor=#dae8fc;strokeColor=#6c8ebf;align=center;sketch=1;" parent="whuzJQe5Y9KvXegfson8-16" vertex="1">
          <mxGeometry x="45" y="45" width="100" height="45" as="geometry" />
        </mxCell>
        <mxCell id="PeKls6Yjagie5iTTzEYD-19" value="&lt;p class=&quot;p1&quot; style=&quot;margin: 0px ; text-indent: 24px ; font-stretch: normal ; line-height: normal ; font-family: &amp;#34;simsong&amp;#34; ; font-size: 10px&quot;&gt;成都市工程咨询公司&lt;/p&gt;" style="text;html=1;align=left;verticalAlign=middle;resizable=0;points=[];autosize=1;rounded=0;fontSize=10;sketch=1;" parent="whuzJQe5Y9KvXegfson8-16" vertex="1">
          <mxGeometry width="130" height="20" as="geometry" />
        </mxCell>
        <mxCell id="PeKls6Yjagie5iTTzEYD-24" value="&lt;span style=&quot;color: rgb(0, 0, 0); font-size: 12px; font-style: normal; font-weight: normal; letter-spacing: normal; text-indent: 24px; text-transform: none; word-spacing: 0px; text-decoration: none; display: inline; float: none;&quot;&gt;智慧工地管理平台&lt;/span&gt;" style="rounded=0;whiteSpace=wrap;html=1;fillColor=#dae8fc;strokeColor=#6c8ebf;align=center;sketch=1;" parent="whuzJQe5Y9KvXegfson8-16" vertex="1">
          <mxGeometry x="45" y="105" width="100" height="40" as="geometry" />
        </mxCell>
        <mxCell id="PeKls6Yjagie5iTTzEYD-25" value="&lt;span style=&quot;color: rgb(0, 0, 0); font-size: 12px; font-style: normal; font-weight: normal; letter-spacing: normal; text-indent: 24px; text-transform: none; word-spacing: 0px; text-decoration: none; display: inline; float: none;&quot;&gt;会议文档查看系统&lt;/span&gt;" style="rounded=0;whiteSpace=wrap;html=1;fillColor=#dae8fc;strokeColor=#6c8ebf;align=center;sketch=1;" parent="whuzJQe5Y9KvXegfson8-16" vertex="1">
          <mxGeometry x="45" y="160" width="100" height="40" as="geometry" />
        </mxCell>
        <mxCell id="PeKls6Yjagie5iTTzEYD-9" value="" style="rounded=1;whiteSpace=wrap;html=1;fontSize=8;fillColor=#f5f5f5;fontColor=#333333;strokeColor=#666666;sketch=1;" parent="1" vertex="1">
          <mxGeometry x="185" y="910" width="660" height="150" as="geometry" />
        </mxCell>
        <mxCell id="PeKls6Yjagie5iTTzEYD-1" value="&lt;span style=&quot;color: rgb(0 , 0 , 0) ; font-size: 12px ; font-style: normal ; font-weight: normal ; letter-spacing: normal ; text-align: justify ; text-indent: 24px ; text-transform: none ; word-spacing: 0px ; text-decoration: none ; display: inline ; float: none&quot;&gt;文档加密系统&lt;/span&gt;" style="rounded=0;whiteSpace=wrap;html=1;fillColor=#dae8fc;strokeColor=#6c8ebf;sketch=1;" parent="1" vertex="1">
          <mxGeometry x="459" y="955" width="100" height="40" as="geometry" />
        </mxCell>
        <mxCell id="PeKls6Yjagie5iTTzEYD-2" value="&lt;p class=&quot;p1&quot; style=&quot;margin: 0px ; text-indent: 24px ; font-stretch: normal ; line-height: normal ; font-family: &amp;quot;simsong&amp;quot;&quot;&gt;国标电子书库&lt;/p&gt;" style="rounded=0;whiteSpace=wrap;html=1;align=left;fillColor=#dae8fc;strokeColor=#6c8ebf;sketch=1;" parent="1" vertex="1">
          <mxGeometry x="337.03999999999996" y="955" width="100" height="40" as="geometry" />
        </mxCell>
        <mxCell id="PeKls6Yjagie5iTTzEYD-3" value="&lt;meta charset=&quot;utf-8&quot;&gt;&lt;span style=&quot;color: rgb(0, 0, 0); font-size: 12px; font-style: normal; font-weight: normal; letter-spacing: normal; text-align: justify; text-indent: 24px; text-transform: none; word-spacing: 0px; text-decoration: none; display: inline; float: none;&quot;&gt;中国知网&lt;/span&gt;" style="rounded=0;whiteSpace=wrap;html=1;fillColor=#dae8fc;strokeColor=#6c8ebf;sketch=1;" parent="1" vertex="1">
          <mxGeometry x="210" y="955" width="100" height="40" as="geometry" />
        </mxCell>
        <mxCell id="PeKls6Yjagie5iTTzEYD-10" value="&lt;p class=&quot;p1&quot; style=&quot;margin: 0px; text-indent: 24px; font-stretch: normal; line-height: normal; font-family: simsong; font-size: 10px;&quot;&gt;成都市建筑设计研究院&lt;/p&gt;" style="text;html=1;align=left;verticalAlign=middle;resizable=0;points=[];autosize=1;rounded=0;fontSize=10;sketch=1;" parent="1" vertex="1">
          <mxGeometry x="170" y="925" width="140" height="20" as="geometry" />
        </mxCell>
        <mxCell id="whuzJQe5Y9KvXegfson8-3" value="&lt;p class=&quot;p1&quot; style=&quot;margin: 0px ; text-indent: 24px ; font-stretch: normal ; line-height: normal ; font-family: &amp;#34;simsong&amp;#34;&quot;&gt;防火墙系统&lt;/p&gt;" style="rounded=0;whiteSpace=wrap;html=1;align=left;fillColor=#dae8fc;strokeColor=#6c8ebf;sketch=1;" parent="1" vertex="1">
          <mxGeometry x="715" y="955" width="100" height="40" as="geometry" />
        </mxCell>
        <mxCell id="whuzJQe5Y9KvXegfson8-4" value="&lt;span style=&quot;color: rgb(0 , 0 , 0) ; font-size: 12px ; font-style: normal ; font-weight: normal ; letter-spacing: normal ; text-align: justify ; text-indent: 24px ; text-transform: none ; word-spacing: 0px ; text-decoration: none ; display: inline ; float: none&quot;&gt;灾备安全系统&lt;/span&gt;" style="rounded=0;whiteSpace=wrap;html=1;fillColor=#dae8fc;strokeColor=#6c8ebf;sketch=1;" parent="1" vertex="1">
          <mxGeometry x="585" y="955" width="100" height="40" as="geometry" />
        </mxCell>
        <mxCell id="whuzJQe5Y9KvXegfson8-24" value="" style="shape=curlyBracket;whiteSpace=wrap;html=1;rounded=1;fontSize=16;rotation=-90;sketch=1;" parent="1" vertex="1">
          <mxGeometry x="375.25" y="835.75" width="20" height="342.5" as="geometry" />
        </mxCell>
        <mxCell id="whuzJQe5Y9KvXegfson8-26" value="增购账户、模块共享集团全员" style="text;html=1;strokeColor=none;fillColor=none;align=center;verticalAlign=middle;whiteSpace=wrap;rounded=0;fontSize=12;sketch=1;" parent="1" vertex="1">
          <mxGeometry x="300" y="1020" width="169.44" height="30" as="geometry" />
        </mxCell>
        <mxCell id="whuzJQe5Y9KvXegfson8-29" value="" style="shape=flexArrow;endArrow=classic;html=1;rounded=1;fontSize=12;strokeWidth=1;exitX=0.25;exitY=1;exitDx=0;exitDy=0;entryX=0.68;entryY=-0.013;entryDx=0;entryDy=0;entryPerimeter=0;sketch=1;" parent="1" source="PeKls6Yjagie5iTTzEYD-51" target="whuzJQe5Y9KvXegfson8-12" edge="1">
          <mxGeometry width="50" height="50" relative="1" as="geometry">
            <mxPoint x="460" y="690" as="sourcePoint" />
            <mxPoint x="510" y="640" as="targetPoint" />
          </mxGeometry>
        </mxCell>
        <mxCell id="whuzJQe5Y9KvXegfson8-30" value="督办" style="edgeLabel;html=1;align=center;verticalAlign=middle;resizable=0;points=[];fontSize=12;sketch=1;" parent="whuzJQe5Y9KvXegfson8-29" vertex="1" connectable="0">
          <mxGeometry x="-0.0811" y="1" relative="1" as="geometry">
            <mxPoint as="offset" />
          </mxGeometry>
        </mxCell>
        <mxCell id="whuzJQe5Y9KvXegfson8-31" value="接入" style="shape=flexArrow;endArrow=classic;html=1;rounded=1;fontSize=12;strokeWidth=1;entryX=0.143;entryY=0.993;entryDx=0;entryDy=0;exitX=0.579;exitY=-0.003;exitDx=0;exitDy=0;entryPerimeter=0;exitPerimeter=0;sketch=1;" parent="1" source="whuzJQe5Y9KvXegfson8-12" target="PeKls6Yjagie5iTTzEYD-51" edge="1">
          <mxGeometry width="50" height="50" relative="1" as="geometry">
            <mxPoint x="460" y="690" as="sourcePoint" />
            <mxPoint x="510" y="640" as="targetPoint" />
          </mxGeometry>
        </mxCell>
        <mxCell id="whuzJQe5Y9KvXegfson8-32" value="接入" style="shape=flexArrow;endArrow=classic;html=1;rounded=1;fontSize=12;strokeWidth=1;entryX=0.852;entryY=1.036;entryDx=0;entryDy=0;exitX=0.25;exitY=0;exitDx=0;exitDy=0;entryPerimeter=0;sketch=1;" parent="1" source="whuzJQe5Y9KvXegfson8-13" target="PeKls6Yjagie5iTTzEYD-51" edge="1">
          <mxGeometry width="50" height="50" relative="1" as="geometry">
            <mxPoint x="346.8800000000001" y="453.81500000000005" as="sourcePoint" />
            <mxPoint x="347.2755000000002" y="381.98" as="targetPoint" />
          </mxGeometry>
        </mxCell>
        <mxCell id="whuzJQe5Y9KvXegfson8-33" value="共享" style="shape=flexArrow;endArrow=classic;html=1;rounded=1;fontSize=12;strokeWidth=1;entryX=0.567;entryY=1.004;entryDx=0;entryDy=0;exitX=0.25;exitY=0;exitDx=0;exitDy=0;entryPerimeter=0;sketch=1;" parent="1" source="PeKls6Yjagie5iTTzEYD-9" target="whuzJQe5Y9KvXegfson8-12" edge="1">
          <mxGeometry width="50" height="50" relative="1" as="geometry">
            <mxPoint x="450.0000000000001" y="911.835" as="sourcePoint" />
            <mxPoint x="450.3955000000002" y="840" as="targetPoint" />
          </mxGeometry>
        </mxCell>
        <mxCell id="whuzJQe5Y9KvXegfson8-34" value="共享" style="shape=flexArrow;endArrow=classic;html=1;rounded=1;fontSize=12;strokeWidth=1;entryX=0.131;entryY=1.001;entryDx=0;entryDy=0;exitX=0.75;exitY=0;exitDx=0;exitDy=0;entryPerimeter=0;sketch=1;" parent="1" source="PeKls6Yjagie5iTTzEYD-9" target="whuzJQe5Y9KvXegfson8-13" edge="1">
          <mxGeometry width="50" height="50" relative="1" as="geometry">
            <mxPoint x="470.2199999999998" y="930" as="sourcePoint" />
            <mxPoint x="468.96000000000004" y="851.9749999999999" as="targetPoint" />
          </mxGeometry>
        </mxCell>
        <mxCell id="whuzJQe5Y9KvXegfson8-35" value="" style="shape=flexArrow;endArrow=classic;html=1;rounded=1;fontSize=12;strokeWidth=1;exitX=0.75;exitY=1;exitDx=0;exitDy=0;entryX=0.11;entryY=-0.003;entryDx=0;entryDy=0;entryPerimeter=0;sketch=1;" parent="1" source="PeKls6Yjagie5iTTzEYD-51" target="whuzJQe5Y9KvXegfson8-13" edge="1">
          <mxGeometry width="50" height="50" relative="1" as="geometry">
            <mxPoint x="419.62500000000045" y="380" as="sourcePoint" />
            <mxPoint x="420.7999999999997" y="449.865" as="targetPoint" />
          </mxGeometry>
        </mxCell>
        <mxCell id="whuzJQe5Y9KvXegfson8-36" value="构建" style="edgeLabel;html=1;align=center;verticalAlign=middle;resizable=0;points=[];fontSize=12;sketch=1;" parent="whuzJQe5Y9KvXegfson8-35" vertex="1" connectable="0">
          <mxGeometry x="-0.0811" y="1" relative="1" as="geometry">
            <mxPoint as="offset" />
          </mxGeometry>
        </mxCell>
      </root>
    </mxGraphModel>
  </diagram>
  <diagram id="WE-EBQyEZLC3HnSDuTvw" name="Page-2">
    <mxGraphModel dx="380" dy="683" grid="0" gridSize="10" guides="1" tooltips="1" connect="1" arrows="1" fold="1" page="0" pageScale="1" pageWidth="827" pageHeight="1169" math="0" shadow="0">
      <root>
        <mxCell id="MfQMNXjV3YVUTVMJHP22-0" />
        <mxCell id="MfQMNXjV3YVUTVMJHP22-1" parent="MfQMNXjV3YVUTVMJHP22-0" />
      </root>
    </mxGraphModel>
  </diagram>
</mxfile>
